<svg id="Layer_1" data-name="Layer 1" xmlns="http://www.w3.org/2000/svg" viewBox="0 0 22 32"><defs><style>.cls-1{fill:none;stroke:#414042;stroke-linecap:round;stroke-linejoin:round;}</style></defs><title>lightbulb-brain</title><path class="cls-1" d="M21.5,11A10.5,10.5,0,0,0,9.8.57,11.28,11.28,0,0,0,.62,9.42a10.46,10.46,0,0,0,2.86,8.89,10.29,10.29,0,0,1,3,7.16v2.24a2.24,2.24,0,0,0,.72,1.89L8.94,31a2,2,0,0,0,1.28.46h1.55A2,2,0,0,0,13.06,31l1.72-1.44a2,2,0,0,0,.72-1.54V25.47a9.7,9.7,0,0,1,2.83-7A10.44,10.44,0,0,0,21.5,11Z"/><line class="cls-1" x1="6.5" y1="27.5" x2="15.5" y2="27.5"/><line class="cls-1" x1="7.11" y1="29.5" x2="14.89" y2="29.5"/><line class="cls-1" x1="6.5" y1="25.5" x2="15.5" y2="25.5"/><path class="cls-1" d="M10.5,15A1.5,1.5,0,0,1,9,16.5H6A1.5,1.5,0,0,1,4.5,15h0A1.5,1.5,0,0,1,6,13.5H5a1.5,1.5,0,0,1,0-3H6a1.5,1.5,0,0,1,0-3,1.48,1.48,0,0,1,.66.16A1.48,1.48,0,0,1,6.5,7,1.49,1.49,0,0,1,9,5.9a1.49,1.49,0,0,1,3,0,1.49,1.49,0,0,1,2.35,1.76A1.48,1.48,0,0,1,15,7.5a1.5,1.5,0,0,1,0,3h2a1.5,1.5,0,0,1,0,3H10.5"/><path class="cls-1" d="M7,12a1.5,1.5,0,0,1,1.5,1.5"/><path class="cls-1" d="M13,10.5A1.5,1.5,0,0,1,14.5,9"/><path class="cls-1" d="M9,8.5A1.5,1.5,0,0,1,10.5,7"/><path class="cls-1" d="M10.5,9A1.5,1.5,0,0,1,9,10.5H6"/><line class="cls-1" x1="12.5" y1="25.5" x2="14.5" y2="15.5"/><line class="cls-1" x1="9.5" y1="25.5" x2="8.1" y2="18.5"/></svg>