<?xml version="1.0" encoding="utf-8"?>
<!-- Generator: Adobe Illustrator 20.1.0, SVG Export Plug-In . SVG Version: 6.00 Build 0)  -->
<svg version="1.1" id="Layer_1" xmlns="http://www.w3.org/2000/svg" xmlns:xlink="http://www.w3.org/1999/xlink" x="0px" y="0px"
	 viewBox="0 0 35.1 35.1" style="enable-background:new 0 0 35.1 35.1;" xml:space="preserve">
<g>
	<path d="M32.5,8.7c-1.1,0.5-2.3,0.6-3.5,0.8c1.1-0.8,1.7-1.1,2.5-2.8c-1.2,0.7-2.3,0.6-3.7,0.9c-1.1-1.2-2.7-1.9-4.5-1.9
		c-3.4,0-6.2,2.7-6.2,6.1c0,0.5,0.1,0.9,0.2,1.4c-5.1-0.3-9.7-2.8-12.8-6.4C4,7.6,3.8,8.7,3.8,9.8c0,2.1,1.1,4,2.7,5
		c-1,0-2-0.3-2.8-0.8c0,0,0,0.1,0,0.1c0,2.9,2.1,5.4,4.9,5.9c-0.5,0.1-1.1,0.2-1.6,0.2c-0.4,0-0.8,0-1.2-0.1
		c0.8,2.4,2.9,4.4,5.6,4.4c-2.6,3-8.5,2.1-9,2c2.7,1.7,6,3,9.4,3c11.3,0,17.5-9.2,17.5-17.2c0-0.3,0-0.5,0-0.8
		C30.7,10.8,31.7,9.9,32.5,8.7z"/>
</g>
</svg>
